<svg viewBox="0 0 5340 1080" fill="none" xmlns="http://www.w3.org/2000/svg">
<path d="M417.182 653H803.529L961.107 552.2L813.127 626.6L849.122 529H485.973L433.18 468.2L492.372 305.8L566.762 385.8L469.175 197H1248.27L1120.28 301H733.938L689.144 425H1052.29L1104.29 485.8L1005.9 757H290L417.182 653Z" fill="#BBFF00"/>
<path d="M1299.4 757H1119.42L1242.4 418.6L1292.8 470.8L1225.01 337H1452.38L1380.99 532.6L1529.17 404.2H1767.33L1601.75 539.2L1563.36 467.2L1638.95 757H1430.18L1369.59 563.8L1334.79 659.2L1272.4 607.6L1327.59 679L1299.4 757Z" fill="white"/>
<path d="M2151.49 404.2H2331.46L2181.49 817L2101.7 883H1634.36L1662.56 805H2005.71L2023.11 757H1766.34L1727.35 711.4L1809.54 485.8L1859.33 538L1791.54 404.2H2018.91L1918.72 679H2150.29L2057.9 662.2L2151.49 404.2Z" fill="white"/>
<path d="M2377.88 485.8L2433.07 545.8L2359.88 404.2H2897.41L2929.2 470.8L2890.81 576.4L2810.42 643H2500.26L2487.06 679H2830.22L2802.02 757H2278.89L2377.88 485.8ZM2832.61 489.4L2721.63 545.2L2745.03 482.2H2559.05L2528.46 565H2714.43L2832.61 489.4Z" fill="white"/>
<path d="M3381.24 757H2946.9L2915.11 690.4L2990.1 485.8L3045.29 545.8L2971.5 404.2H3509.63L3541.42 470.8L3461.03 690.4L3381.24 757ZM3285.26 679L3350.05 502L3420.24 557.8L3357.25 482.2H3171.27L3106.48 659.2L3036.29 603.4L3099.28 679H3285.26Z" fill="white"/>
<path d="M3688.52 757H3508.54L3607.53 485.8L3657.32 538L3589.53 404.2H4379.62L4418.62 449.8L4307.03 757H4127.06L4219.44 502.6L4289.03 559L4227.24 482.2H4093.46L3993.28 757H3813.3L3905.69 502.6L3975.28 559L3913.49 482.2H3788.7L3723.31 662.2L3661.52 607.6L3714.91 685L3688.52 757Z" fill="white"/>
<path d="M4498.68 485.8L4553.87 545.8L4480.68 404.2H5018.2L5050 470.8L5011.61 576.4L4931.22 643H4621.06L4607.86 679H4951.01L4922.82 757H4399.69L4498.68 485.8ZM4953.41 489.4L4842.43 545.2L4865.83 482.2H4679.85L4649.26 565H4835.23L4953.41 489.4Z" fill="white"/>
</svg>
